# xmcd
#
# Track frame offsets: 
#        150
#        19281
#        36604
#        53795
#        73098
#        87746
#        102161
#        122395
#        143585
#        158153
#        175946
#        196272
#
# Disc length: 2801 seconds
#
# Revision: 0
# Processed by: cddbd v1.5.2PL0 Copyright (c) Steve Scherf et al.
# Submitted via: ExactAudioCopyFreeDBPlugin 1.0
#
DISCID=a60aef0c
DTITLE=Imany - The Shape Of A Broken Heart
DYEAR=1900
DGENRE=
TTITLE0=slow down
TTITLE1=you will never know
TTITLE2=kisses in the dark
TTITLE3=where have you been
TTITLE4=grey monday
TTITLE5=please and change
TTITLE6=seat with me
TTITLE7=shape of a broken heart
TTITLE8=pray for help
TTITLE9=i've gotta go
TTITLE10=i lost my keys
TTITLE11=take care
EXTD=
EXTT0=
EXTT1=
EXTT2=
EXTT3=
EXTT4=
EXTT5=
EXTT6=
EXTT7=
EXTT8=
EXTT9=
EXTT10=
EXTT11=
PLAYORDER=
